<svg xmlns="http://www.w3.org/2000/svg" x="0px" y="0px" width="64" height="64" viewBox="0 0 64 64">
<path d="M 30 0 L 30 6 L 34 6 L 34 0 L 30 0 z M 10.785156 7.9550781 L 7.9550781 10.785156 L 12.205078 15.033203 L 15.033203 12.205078 L 10.785156 7.9550781 z M 53.214844 7.9570312 L 48.964844 12.205078 L 51.792969 15.035156 L 56.042969 10.785156 L 53.214844 7.9570312 z M 29 10 C 16.869 10 7 19.869 7 32 C 7 43.099 14.076 51.768141 24 53.619141 L 24 56 C 24 60.42 27.58 64 32 64 C 36.42 64 40 60.42 40 56 L 40 52.5 C 42.8 51.41 45.370781 49.740781 47.550781 47.550781 C 51.710781 43.400781 54 37.88 54 32 C 54 26.12 51.710781 20.599219 47.550781 16.449219 C 43.469781 12.348219 38.036 10.076719 32.25 10.011719 L 32.25 10 L 29 10 z M 32 14 C 36.81 14 41.330469 15.869297 44.730469 19.279297 C 48.130469 22.669297 50 27.19 50 32 C 50 36.81 48.130703 41.330469 44.720703 44.730469 C 43.320703 46.130469 41.73 47.280859 40 48.130859 C 38.73 48.770859 37.39 49.240781 36 49.550781 L 36 53.640625 L 36 56 L 28 56 L 28 54 L 28 53.640625 L 28 50 L 28 49.550781 C 26.61 49.240781 25.26 48.760859 24 48.130859 C 22.27 47.270859 20.669531 46.120703 19.269531 44.720703 C 15.869531 41.330703 14 36.81 14 32 C 14 27.19 15.869297 22.669531 19.279297 19.269531 C 22.669297 15.869531 27.19 14 32 14 z M 0 30 L 0 34 L 5 34 L 5 30 L 0 30 z M 58 30 L 58 34 L 64 34 L 64 30 L 58 30 z"></path>
</svg>